<svg width="185" height="45" viewBox="0 0 185 45" fill="none" xmlns="http://www.w3.org/2000/svg">
<path d="M23.616 2.01603H29.856V35.616H23.616V2.01603ZM6.24 35.616H-8.34465e-07V2.01603H6.24V35.616ZM24.096 21.216H5.712V15.888H24.096V21.216ZM52.2034 35.952C49.5794 35.952 47.2434 35.392 45.1954 34.272C43.1474 33.12 41.5314 31.552 40.3474 29.568C39.1634 27.584 38.5714 25.328 38.5714 22.8C38.5714 20.24 39.1634 17.984 40.3474 16.032C41.5314 14.048 43.1474 12.496 45.1954 11.376C47.2434 10.256 49.5794 9.69603 52.2034 9.69603C54.8594 9.69603 57.2114 10.256 59.2594 11.376C61.3394 12.496 62.9554 14.032 64.1074 15.984C65.2914 17.936 65.8834 20.208 65.8834 22.8C65.8834 25.328 65.2914 27.584 64.1074 29.568C62.9554 31.552 61.3394 33.12 59.2594 34.272C57.2114 35.392 54.8594 35.952 52.2034 35.952ZM52.2034 30.816C53.6754 30.816 54.9874 30.496 56.1394 29.856C57.2914 29.216 58.1874 28.288 58.8274 27.072C59.4994 25.856 59.8354 24.432 59.8354 22.8C59.8354 21.136 59.4994 19.712 58.8274 18.528C58.1874 17.312 57.2914 16.384 56.1394 15.744C54.9874 15.104 53.6914 14.784 52.2514 14.784C50.7794 14.784 49.4674 15.104 48.3154 15.744C47.1954 16.384 46.2994 17.312 45.6274 18.528C44.9554 19.712 44.6194 21.136 44.6194 22.8C44.6194 24.432 44.9554 25.856 45.6274 27.072C46.2994 28.288 47.1954 29.216 48.3154 29.856C49.4674 30.496 50.7634 30.816 52.2034 30.816ZM85.5409 35.952C82.9169 35.952 80.5809 35.392 78.5329 34.272C76.4849 33.12 74.8689 31.552 73.6849 29.568C72.5009 27.584 71.9089 25.328 71.9089 22.8C71.9089 20.24 72.5009 17.984 73.6849 16.032C74.8689 14.048 76.4849 12.496 78.5329 11.376C80.5809 10.256 82.9169 9.69603 85.5409 9.69603C88.1969 9.69603 90.5489 10.256 92.5969 11.376C94.6769 12.496 96.2929 14.032 97.4449 15.984C98.6289 17.936 99.2209 20.208 99.2209 22.8C99.2209 25.328 98.6289 27.584 97.4449 29.568C96.2929 31.552 94.6769 33.12 92.5969 34.272C90.5489 35.392 88.1969 35.952 85.5409 35.952ZM85.5409 30.816C87.0129 30.816 88.3249 30.496 89.4769 29.856C90.6289 29.216 91.5249 28.288 92.1649 27.072C92.8369 25.856 93.1729 24.432 93.1729 22.8C93.1729 21.136 92.8369 19.712 92.1649 18.528C91.5249 17.312 90.6289 16.384 89.4769 15.744C88.3249 15.104 87.0289 14.784 85.5889 14.784C84.1169 14.784 82.8049 15.104 81.6529 15.744C80.5329 16.384 79.6369 17.312 78.9649 18.528C78.2929 19.712 77.9569 21.136 77.9569 22.8C77.9569 24.432 78.2929 25.856 78.9649 27.072C79.6369 28.288 80.5329 29.216 81.6529 29.856C82.8049 30.496 84.1009 30.816 85.5409 30.816ZM121.566 35.952C119.486 35.952 117.582 35.472 115.854 34.512C114.158 33.552 112.798 32.112 111.774 30.192C110.782 28.24 110.286 25.776 110.286 22.8C110.286 19.792 110.766 17.328 111.726 15.408C112.718 13.488 114.062 12.064 115.758 11.136C117.454 10.176 119.39 9.69603 121.566 9.69603C124.094 9.69603 126.318 10.24 128.238 11.328C130.19 12.416 131.726 13.936 132.846 15.888C133.998 17.84 134.574 20.144 134.574 22.8C134.574 25.456 133.998 27.776 132.846 29.76C131.726 31.712 130.19 33.232 128.238 34.32C126.318 35.408 124.094 35.952 121.566 35.952ZM107.358 44.928V9.98403H113.07V16.032L112.878 22.848L113.358 29.664V44.928H107.358ZM120.894 30.816C122.334 30.816 123.614 30.496 124.734 29.856C125.886 29.216 126.798 28.288 127.47 27.072C128.142 25.856 128.478 24.432 128.478 22.8C128.478 21.136 128.142 19.712 127.47 18.528C126.798 17.312 125.886 16.384 124.734 15.744C123.614 15.104 122.334 14.784 120.894 14.784C119.454 14.784 118.158 15.104 117.006 15.744C115.854 16.384 114.942 17.312 114.27 18.528C113.598 19.712 113.262 21.136 113.262 22.8C113.262 24.432 113.598 25.856 114.27 27.072C114.942 28.288 115.854 29.216 117.006 29.856C118.158 30.496 119.454 30.816 120.894 30.816ZM142.665 35.616V2.57492e-05H148.665V35.616H142.665ZM170.46 35.952C167.836 35.952 165.5 35.392 163.452 34.272C161.404 33.12 159.788 31.552 158.604 29.568C157.42 27.584 156.828 25.328 156.828 22.8C156.828 20.24 157.42 17.984 158.604 16.032C159.788 14.048 161.404 12.496 163.452 11.376C165.5 10.256 167.836 9.69603 170.46 9.69603C173.116 9.69603 175.468 10.256 177.516 11.376C179.596 12.496 181.212 14.032 182.364 15.984C183.548 17.936 184.14 20.208 184.14 22.8C184.14 25.328 183.548 27.584 182.364 29.568C181.212 31.552 179.596 33.12 177.516 34.272C175.468 35.392 173.116 35.952 170.46 35.952ZM170.46 30.816C171.932 30.816 173.244 30.496 174.396 29.856C175.548 29.216 176.444 28.288 177.084 27.072C177.756 25.856 178.092 24.432 178.092 22.8C178.092 21.136 177.756 19.712 177.084 18.528C176.444 17.312 175.548 16.384 174.396 15.744C173.244 15.104 171.948 14.784 170.508 14.784C169.036 14.784 167.724 15.104 166.572 15.744C165.452 16.384 164.556 17.312 163.884 18.528C163.212 19.712 162.876 21.136 162.876 22.8C162.876 24.432 163.212 25.856 163.884 27.072C164.556 28.288 165.452 29.216 166.572 29.856C167.724 30.496 169.02 30.816 170.46 30.816Z" fill="white"/>
</svg>
